<?xml version="1.0" encoding="UTF-8"?>
<svg id="Layer_1" data-name="Layer 1" xmlns="http://www.w3.org/2000/svg" viewBox="0 0 92.33 88.57">
  <defs>
    <style>
      .cls-1 {
        fill: #000;
        stroke-width: 0px;
      }
    </style>
  </defs>
  <path class="cls-1" d="M55.35,0l2.12,18.1,14.84-11.36-5.26,17.5,18.25-5.04-11.84,14.24,18.87,2.04-16.62,8.81,16.62,8.81-18.87,2.04,11.84,14.24-18.25-5.04,5.26,17.5-14.84-11.36-2.12,18.1-9.18-15.94-9.18,15.94-2.12-18.1-14.84,11.36,5.26-17.5-18.25,5.04,11.84-14.24L0,53.09l16.62-8.81L0,35.47l18.87-2.04-11.84-14.24,18.25,5.04-5.26-17.5,14.84,11.36L36.98,0l9.18,15.94L55.35,0Z"/>
</svg>