<?xml version="1.0" encoding="UTF-8"?>
<svg id="Layer_1" data-name="Layer 1" xmlns="http://www.w3.org/2000/svg" version="1.1" viewBox="0 0 362.5 347.7">
  <defs>
    <style>
      .cls-1 {
        fill: #3df9cc;
        stroke-width: 0px;
      }
    </style>
  </defs>
  <path class="cls-1" d="M217.3,0l8.3,71.1,58.3-44.6-20.6,68.7,71.6-19.8-46.5,55.9,74.1,8-65.2,34.6,65.2,34.6-74.1,8,46.5,55.9-71.6-19.8,20.6,68.7-58.3-44.6-8.3,71.1-36.1-62.6-36.1,62.6-8.3-71-58.3,44.6,20.6-68.7-71.6,19.8,46.5-55.9L0,208.4l65.2-34.6L0,139.3l74.1-8-46.5-55.9,71.6,19.8-20.6-68.7,58.3,44.6L145.2,0l36.1,62.6L217.3,0Z"/>
</svg>