<?xml version="1.0" encoding="UTF-8"?>
<svg id="Layer_1" data-name="Layer 1" xmlns="http://www.w3.org/2000/svg" version="1.1" viewBox="0 0 362.5 347.7">
  <defs>
    <style>
      .cls-1 {
        display: none;
        fill: #e340f4;
      }

      .cls-1, .cls-2 {
        stroke-width: 0px;
      }

      .cls-2 {
        fill: #3e62f7;
      }
    </style>
  </defs>
  <path class="cls-2" d="M217.3,0l8.3,71.1,58.3-44.6-20.6,68.7,71.6-19.8-46.5,55.9,74.1,8-65.2,34.6,65.2,34.6-74.1,8,46.5,55.9-71.6-19.8,20.6,68.7-58.3-44.6-8.3,71.1-36.1-62.6-36.1,62.6-8.3-71-58.3,44.6,20.6-68.7-71.6,19.8,46.5-55.9L0,208.4l65.2-34.6L0,139.3l74.1-8-46.5-55.9,71.6,19.8-20.6-68.7,58.3,44.6L145.2,0l36.1,62.6L217.3,0Z"/>
  <polygon class="cls-1" points="201.3 68.4 216.6 115.4 266.1 115.4 226 144.5 241.3 191.6 201.3 162.5 161.3 191.6 176.6 144.5 136.6 115.4 186 115.4 201.3 68.4"/>
  <path class="cls-1" d="M-70.5-11.7l11.8,36.4c0,.1.2.2.3.2H-20.1c.3,0,.5.4.2.6l-31,22.5c-.1,0-.2.2-.1.4l11.8,36.4c.1.3-.3.6-.5.4l-31-22.5c-.1,0-.3,0-.4,0l-31,22.5c-.3.2-.6,0-.5-.4l6.1-18.9c3.4-10.6-.3-22.2-9.3-28.7l-16.1-11.7c-.3-.2-.1-.6.2-.6h38.3c.1,0,.3,0,.3-.2l11.8-36.4c.1-.3.6-.3.7,0Z"/>
  <polygon class="cls-1" points="356.5 312.5 184.4 250.6 20.5 316.1 56.6 176 2.5 38.8 174.7 100.8 338.6 35.3 317 175 356.5 312.5"/>
</svg>