<?xml version="1.0" encoding="UTF-8"?>
<svg id="Layer_1" data-name="Layer 1" xmlns="http://www.w3.org/2000/svg" viewBox="0 0 362.49 347.69">
  <defs>
    <style>
      .cls-1 {
        fill: #fbb03b;
        stroke-width: 0px;
      }
    </style>
  </defs>
  <path class="cls-1" d="M217.3,0l8.34,71.05,58.28-44.59-20.64,68.71,71.63-19.8-46.48,55.9,74.08,8-65.25,34.58,65.25,34.58-74.08,8,46.48,55.9-71.63-19.8,20.64,68.71-58.28-44.59-8.34,71.05-36.05-62.58-36.05,62.58-8.34-71.05-58.28,44.59,20.64-68.71-71.63,19.8,46.48-55.9L0,208.43l65.25-34.58L0,139.27l74.08-8-46.48-55.9,71.63,19.8-20.64-68.71,58.28,44.59L145.19,0l36.05,62.58L217.3,0Z"/>
</svg>